<svg id="SvgjsSvg1013" width="288" height="288" xmlns="http://www.w3.org/2000/svg" version="1.1" xmlns:xlink="http://www.w3.org/1999/xlink" xmlns:svgjs="http://svgjs.com/svgjs"><defs id="SvgjsDefs1014"></defs><g id="SvgjsG1015"><svg xmlns="http://www.w3.org/2000/svg" baseProfile="tiny-ps" version="1.2" viewBox="0 0 18 18" width="288" height="288"><g id="Layer" fill="#afafaf" class="color000 svgShape"><path id="Layer" fill="#afafaf" fill-rule="evenodd" d="M15.5 4C16.88 4 18 5.12 18 6.5L18 15.5C18 16.88 16.88 18 15.5 18L6.5 18C5.12 18 4 16.88 4 15.5L4 6.5C4 5.12 5.12 4 6.5 4L15.5 4ZM15.5 6L6.5 6C6.22 6 6 6.22 6 6.5L6 15.5C6 15.77 6.22 16 6.5 16L15.5 16C15.77 16 16 15.77 16 15.5L16 6.5C16 6.22 15.78 6 15.5 6ZM13 0C13.55 0 14 0.45 14 1C14 1.55 13.55 2 13 2L2 2L2 13C2 13.55 1.55 14 1 14C0.45 14 0 13.55 0 13L0 2.5C0 1.12 1.12 0 2.5 0L13 0Z" class="color000 svgShape"></path></g></svg></g></svg>