<svg xmlns="http://www.w3.org/2000/svg" xmlns:xlink="http://www.w3.org/1999/xlink" version="1.1" id="Layer_1" x="0px" y="0px" style="enable-background:new 0 0 1920 1080;" xml:space="preserve" viewBox="573.8 471.6 801.5 174.73">
<style type="text/css">
	.st0{fill:#FFFFFF;}
	.st1{fill:#2F9AF2;}
</style>
<path class="st0" d="M788.3,598V495.7h30.2c8.4-0.2,16.7,1.9,24.1,6c7,4,12.6,10,16.3,17.1c4,7.9,5.9,16.6,5.8,25.4v5.1  c0,9.7-1.9,18.2-5.8,25.6c-3.7,7.2-9.5,13.1-16.5,17c-7.5,4.1-16,6.2-24.6,6L788.3,598z M806.1,510v73.8h11.6  c9.3,0,16.5-2.9,21.5-8.8c5-5.8,7.5-14.2,7.6-25.1v-5.7c0-11.1-2.4-19.6-7.2-25.4s-11.8-8.8-21-8.8L806.1,510z"/>
<path class="st0" d="M911.3,599.5c-10.8,0-19.6-3.4-26.3-10.2c-6.7-6.8-10.1-15.9-10.1-27.2v-2.1c-0.1-7,1.4-14,4.4-20.3  c2.7-5.7,7-10.6,12.3-14c5.3-3.3,11.4-5.1,17.7-5c10.4,0,18.4,3.3,24,9.9s8.5,15.9,8.5,28v6.9h-49.7c0.5,6.3,2.6,11.2,6.3,14.9  c3.7,3.7,8.7,5.6,13.9,5.5c7.5,0.1,14.7-3.4,19.1-9.5l9.2,8.8c-3.1,4.5-7.3,8.2-12.2,10.6C923.1,598.2,917.2,599.5,911.3,599.5z   M909.3,534.3c-4.3-0.2-8.5,1.7-11.3,4.9c-2.9,3.3-4.7,7.8-5.5,13.7H925v-1.3c-0.4-5.7-1.9-10-4.6-13S914,534.3,909.3,534.3  L909.3,534.3z"/>
<path class="st0" d="M979,576.4l16-54.4h17.6l-26.3,76h-14.8l-26.6-76h17.7L979,576.4z"/>
<path class="st0" d="M1029.3,598v-63.4h-11.6V522h11.6v-7c0-8.4,2.3-15,7-19.5c4.7-4.6,11.2-6.9,19.7-6.9c3.2,0,6.4,0.5,9.6,1.3  l-0.4,13.4c-2.2-0.4-4.3-0.6-6.5-0.6c-8.2,0-12.2,4.2-12.2,12.6v6.8h15.5v12.7h-15.5v63.4L1029.3,598z"/>
<path class="st0" d="M1077.3,502.2c-0.1-2.4,0.8-4.8,2.5-6.5c1.7-1.7,4-2.6,7.1-2.6s5.5,0.9,7.2,2.6c1.7,1.7,2.6,4.1,2.5,6.5  c0.1,2.4-0.8,4.7-2.5,6.4c-1.7,1.7-4.1,2.6-7.2,2.6s-5.5-0.9-7.1-2.6C1078.1,507,1077.2,504.6,1077.3,502.2z M1095.4,598h-17.1v-76  h17.1V598z"/>
<path class="st0" d="M1129.3,598h-17.1V490h17.1V598z"/>
<path class="st0" d="M1184.2,599.5c-10.8,0-19.6-3.4-26.3-10.2c-6.7-6.8-10.1-15.9-10.1-27.2v-2.1c-0.1-7,1.4-14,4.4-20.3  c2.7-5.7,7-10.6,12.3-14c5.3-3.3,11.4-5.1,17.7-5c10.4,0,18.4,3.3,24,9.9c5.6,6.6,8.5,15.9,8.5,28v6.9h-49.7  c0.5,6.3,2.6,11.2,6.3,14.9c3.7,3.7,8.7,5.6,13.9,5.5c7.5,0.1,14.7-3.4,19.1-9.5l9.2,8.8c-3.1,4.5-7.3,8.2-12.2,10.6  C1196,598.2,1190.2,599.5,1184.2,599.5z M1182.2,534.3c-4.3-0.2-8.5,1.7-11.3,4.9c-2.9,3.3-4.7,7.8-5.5,13.7h32.5v-1.3  c-0.4-5.7-1.9-10-4.6-13S1186.9,534.3,1182.2,534.3L1182.2,534.3z"/>
<path class="st0" d="M1238.7,580.1c3.2,0,5.6,0.9,7.4,2.7c1.7,1.8,2.7,4.3,2.6,6.8c0.1,2.5-0.9,4.9-2.6,6.6  c-1.7,1.8-4.2,2.6-7.4,2.6c-2.7,0.1-5.3-0.8-7.2-2.6c-1.8-1.7-2.8-4.2-2.7-6.7c-0.1-2.5,0.9-5,2.6-6.8  C1233.3,580.9,1235.9,579.9,1238.7,580.1z"/>
<path class="st0" d="M1271.1,502.2c-0.1-2.4,0.8-4.8,2.5-6.5c1.7-1.7,4-2.6,7.1-2.6s5.5,0.9,7.2,2.6c1.7,1.7,2.6,4.1,2.5,6.5  c0.1,2.4-0.8,4.7-2.5,6.4c-1.7,1.7-4.1,2.6-7.2,2.6s-5.5-0.9-7.1-2.6C1271.9,507,1271,504.6,1271.1,502.2z M1289.2,598h-17.1v-76  h17.1V598z"/>
<path class="st0" d="M1304.6,559.3c-0.1-7,1.4-13.9,4.4-20.1c2.7-5.7,7-10.5,12.4-13.8c5.6-3.3,11.9-4.9,18.4-4.8  c10.3,0,18.6,3.3,25,9.9c6.4,6.6,9.9,15.4,10.4,26.3l0.1,4c0.1,6.9-1.4,13.8-4.3,20.1c-2.7,5.7-7,10.5-12.4,13.7  c-5.6,3.3-12.1,5-18.6,4.8c-10.7,0-19.3-3.6-25.8-10.7s-9.7-16.7-9.7-28.6L1304.6,559.3z M1321.7,560.8c0,7.8,1.6,13.9,4.8,18.4  c3.1,4.4,8.2,6.9,13.5,6.6c5.3,0.2,10.4-2.3,13.5-6.8c3.2-4.5,4.8-11.1,4.8-19.8c0-7.7-1.7-13.8-5-18.3c-5.5-7.4-16-9-23.4-3.5  c-1.3,0.9-2.4,2.1-3.4,3.3C1323.3,545.4,1321.7,552,1321.7,560.8z"/>
<path class="st1" d="M693.7,550c0-11.9-5.4-23.2-14.7-30.6c-0.4,2.2-1.5,4.2-3.1,5.8l-3,3c11.9,10.1,13.4,28,3.3,39.9  c-10.1,11.9-28,13.4-39.9,3.3c-11.9-10.1-13.4-28-3.3-39.9c5.3-6.2,13-9.9,21.1-10l-9.1,9.1c-2,2.2-1.9,5.6,0.3,7.6  c2.1,1.9,5.2,1.9,7.3,0l14-14l0,0l4.1-4.1c1.5-1.5,1.7-4,0.3-5.7c-0.1,0-0.8-0.8-1.1-1.1L652.6,496c-2.2-2.1-5.6-2-7.6,0.2  c-2,2.1-2,5.4,0,7.5l7.2,7.2c-21.6,1.3-38,19.8-36.7,41.4c1.3,21.6,19.8,38,41.4,36.7C677.6,587.8,693.7,570.7,693.7,550z"/>
<path class="st1" d="M732.5,551c0-43.8-35.5-79.4-79.3-79.4c-43.8,0-79.4,35.5-79.4,79.3c0,43.4,34.8,78.7,78.2,79.4l-7,7  c-2,2.2-1.9,5.6,0.3,7.6c2.1,1.9,5.2,1.9,7.3,0l16.2-16.2l0,0l2-2c1.6-1.7,1.6-4.3,0-6l-2.8-2.8l0,0l-15.3-15.3  c-2.2-2.1-5.6-2-7.6,0.2c-2,2.1-2,5.4,0,7.5l9.2,9.2h-1.1c-37.9,0-68.7-30.7-68.7-68.6c0-37.9,30.7-68.7,68.6-68.7  s68.7,30.7,68.7,68.6c0,29.2-18.4,55.2-45.9,64.8v0c2.7,2.7,3.8,6.6,3.1,10.3C711,614.9,732.5,584.8,732.5,551z"/>
</svg>