<svg id="SvgjsSvg1001" width="288" height="288" xmlns="http://www.w3.org/2000/svg" version="1.1" xmlns:xlink="http://www.w3.org/1999/xlink" xmlns:svgjs="http://svgjs.com/svgjs"><defs id="SvgjsDefs1002"></defs><g id="SvgjsG1008" transform="matrix(1,0,0,1,0,0)"><svg xmlns="http://www.w3.org/2000/svg" baseProfile="tiny-ps" version="1.2" viewBox="0 0 18 18" width="288" height="288"><g id="Layer" fill="#afafaf" class="color000 svgShape"><g id="Layer" fill="#afafaf" class="color000 svgShape"><path id="Layer" fill="#afafaf" fill-rule="evenodd" d="M9.1 2L9.1 2L3.99 2C2.9 2 2 2.9 2 3.99L2 14.01C2 15.11 2.89 16 3.99 16L14.01 16C15.1 16 16 15.1 16 14L16 9.98L16 9.98C16.01 9.44 16.46 9 17 9C17.54 9 17.99 9.44 18 9.98L18 9.98L18 14C18 16.21 16.21 18 14.01 18L3.99 18C1.79 18 0 16.21 0 14.01L0 3.99C0 1.79 1.8 0 3.99 0L9.1 0L9.1 0C9.61 0.06 10 0.48 10 1C10 1.52 9.61 1.94 9.1 2ZM11.61 9.11L12.84 10.34L9.71 13.48C8.6 14.59 6.67 14.23 5.34 12.9C4.02 11.57 3.65 9.64 4.76 8.53L7.89 5.4L9.13 6.63L5.99 9.77C5.71 10.05 5.88 10.92 6.6 11.64C7.33 12.37 8.18 12.53 8.47 12.24L11.61 9.11ZM14.1 9.08L12.87 7.85L16 4.71C16.29 4.43 16.13 3.57 15.4 2.84C14.68 2.12 13.81 1.95 13.53 2.23L10.39 5.37L9.15 4.14L12.29 1C13.4 -0.11 15.33 0.26 16.66 1.58C17.99 2.91 18.35 4.84 17.24 5.95L14.1 9.08ZM11.64 5.36C11.99 5.01 12.54 5.01 12.89 5.35C13.23 5.69 13.23 6.24 12.88 6.59L10.36 9.12C10.01 9.46 9.46 9.47 9.11 9.12C8.77 8.78 8.77 8.23 9.12 7.88L11.64 5.36Z" class="color000 svgShape"></path></g></g></svg></g></svg>